<?xml version="1.0" standalone="no"?><!DOCTYPE svg PUBLIC "-//W3C//DTD SVG 1.1//EN" "http://www.w3.org/Graphics/SVG/1.1/DTD/svg11.dtd"><svg t="1694591717229" class="icon" viewBox="0 0 1024 1024" version="1.1" xmlns="http://www.w3.org/2000/svg" p-id="1156" xmlns:xlink="http://www.w3.org/1999/xlink" width="16" height="16"><path d="M469.33 49.44c-231.9 0-419.89 187.99-419.89 419.89 0 231.902 187.99 419.9 419.89 419.9 103.115 0 197.425-37.32 270.51-98.99L893.8 944.18l4.79 4.12c16.704 12.392 40.404 11.02 55.55-4.13 16.661-16.664 16.655-43.679-0.01-60.34L799.06 728.79c56.303-71.454 90.17-161.43 90.17-259.46 0-231.9-187.998-419.89-419.9-419.89z m0 85.33c184.773 0 334.57 149.787 334.57 334.56S654.103 803.9 469.33 803.9 134.77 654.103 134.77 469.33s149.787-334.56 334.56-334.56zM288.91 265.58c-21.984 0-39.8 12.343-39.8 27.57v352.89c0 15.227 17.816 27.57 39.8 27.57 21.984 0 39.81-12.343 39.81-27.57V293.15c0-15.227-17.826-27.57-39.81-27.57z m370.85 0c-20.633 0-37.36 12.343-37.36 27.57v352.89c0 15.227 16.727 27.57 37.36 27.57s37.36-12.343 37.36-27.57V293.15c0-15.227-16.727-27.57-37.36-27.57z m-182.1 74.4a48.388 48.388 0 0 0-48.39 48.39 48.39 48.39 0 1 0 96.78 0 48.388 48.388 0 0 0-48.39-48.39z m-1.22 161.12a47.165 47.165 0 0 0-47.17 47.16 47.165 47.165 0 0 0 94.33 0 47.165 47.165 0 0 0-47.16-47.16z" fill="#2c2c2c" p-id="1157"></path></svg>